<svg width="46" height="47" viewBox="0 0 46 47" fill="none" xmlns="http://www.w3.org/2000/svg">
<g id="pawprint 2" clip-path="url(#clip0_20_88)">
<path id="Vector" d="M30.761 24.8685C28.6911 21.6578 25.1657 19.7407 21.3305 19.7407C17.4953 19.7407 13.97 21.6578 11.9005 24.8685L6.91272 32.605C6.08518 33.8884 5.70334 35.3714 5.80828 36.8925C5.91321 38.4139 6.49544 39.8306 7.49179 40.9905C8.48885 42.1494 9.80632 42.9415 11.3017 43.2814C12.7971 43.6212 14.3301 43.4761 15.7346 42.8623L15.8287 42.8208C19.3628 41.307 23.4012 41.321 26.9261 42.8623C27.8354 43.2597 28.7988 43.4607 29.7709 43.4607C30.2995 43.4607 30.8312 43.4011 31.3579 43.2817C32.8534 42.9422 34.1708 42.1501 35.1682 40.9909C36.1649 39.832 36.7475 38.415 36.8528 36.8932C36.9581 35.3714 36.5763 33.8888 35.7487 32.6046L30.761 24.8685Z" fill="white"/>
<path id="Vector_2" d="M8.25619 24.8585C9.74001 24.2918 10.8673 23.1029 11.4302 21.5107C11.9661 19.9955 11.9222 18.285 11.3063 16.6938C10.69 15.1037 9.5691 13.8056 8.14985 13.0382C6.659 12.2325 5.02111 12.1013 3.53974 12.6691C0.559455 13.8084 -0.808205 17.4702 0.491371 20.8337C1.52949 23.5108 3.95071 25.2008 6.3986 25.2008C7.02364 25.2008 7.65044 25.0905 8.25619 24.8585Z" fill="white"/>
<path id="Vector_3" d="M17.9339 18.7973C21.6596 18.7973 24.6908 15.3637 24.6908 11.1432C24.6908 6.92164 21.6596 3.4873 17.9339 3.4873C14.2086 3.4873 11.1777 6.92164 11.1777 11.1432C11.1777 15.3637 14.2086 18.7973 17.9339 18.7973Z" fill="white"/>
<path id="Vector_4" d="M29.6033 20.6778H29.6036C30.1767 20.8669 30.7614 20.9573 31.3436 20.9573C34.0607 20.9573 36.7087 18.991 37.719 15.9691C38.3009 14.2296 38.2627 12.3903 37.6113 10.7904C36.9298 9.11543 35.6667 7.8997 34.0544 7.36685C32.4418 6.83401 30.6979 7.05629 29.1435 7.99217C27.6586 8.88617 26.5209 10.3367 25.9397 12.0762C24.7131 15.7458 26.3566 19.6044 29.6033 20.6778Z" fill="white"/>
<path id="Vector_5" d="M43.8324 19.7845L43.8313 19.7834C41.262 17.8963 37.4194 18.7143 35.2649 21.6077C33.1126 24.5026 33.4491 28.3944 36.0146 30.2829C36.9502 30.9721 38.0557 31.3015 39.1872 31.3015C41.1592 31.3015 43.2108 30.3007 44.5824 28.4604C46.7344 25.5655 46.3982 21.6737 43.8324 19.7845Z" fill="white"/>
</g>
<defs>
<clipPath id="clip0_20_88">
<rect width="46" height="45.7371" fill="white" transform="translate(0 0.628662)"/>
</clipPath>
</defs>
</svg>
