<svg width="46" height="46" viewBox="0 0 46 46" fill="none" xmlns="http://www.w3.org/2000/svg">
<g id="pawprint 1" clip-path="url(#clip0_15_134)">
<path id="Vector" d="M30.761 24.3792C28.6911 21.1501 25.1657 19.222 21.3305 19.222C17.4953 19.222 13.97 21.1501 11.9005 24.3792L6.91272 32.1602C6.08518 33.451 5.70334 34.9426 5.80828 36.4724C5.91321 38.0025 6.49544 39.4274 7.49179 40.5939C8.48885 41.7594 9.80632 42.5561 11.3017 42.8979C12.7971 43.2398 14.3301 43.0938 15.7346 42.4764L15.8287 42.4347C19.3628 40.9123 23.4012 40.9263 26.9261 42.4764C27.8354 42.8762 28.7988 43.0783 29.7709 43.0783C30.2995 43.0783 30.8312 43.0183 31.3579 42.8983C32.8534 42.5568 34.1708 41.7602 35.1682 40.5943C36.1649 39.4288 36.7475 38.0036 36.8528 36.4731C36.9581 34.9426 36.5763 33.4514 35.7487 32.1599L30.761 24.3792Z" fill="#E9473C"/>
<path id="Vector_2" d="M8.25619 24.3691C9.74001 23.7991 10.8673 22.6034 11.4302 21.002C11.9661 19.4782 11.9222 17.7578 11.3063 16.1575C10.69 14.5582 9.5691 13.2527 8.14985 12.4809C6.659 11.6706 5.02111 11.5386 3.53974 12.1096C0.559455 13.2555 -0.808205 16.9384 0.491371 20.3212C1.52949 23.0137 3.95071 24.7133 6.3986 24.7133C7.02364 24.7133 7.65044 24.6024 8.25619 24.3691Z" fill="#E9473C"/>
<path id="Vector_3" d="M17.9339 18.273C21.6596 18.273 24.6908 14.8197 24.6908 10.5749C24.6908 6.32907 21.6596 2.875 17.9339 2.875C14.2086 2.875 11.1777 6.32907 11.1777 10.5749C11.1777 14.8197 14.2086 18.273 17.9339 18.273Z" fill="#E9473C"/>
<path id="Vector_4" d="M29.6033 20.1643H29.6036C30.1767 20.3545 30.7614 20.4454 31.3436 20.4454C34.0607 20.4454 36.7087 18.4678 37.719 15.4286C38.3009 13.6791 38.2627 11.8292 37.6113 10.2201C36.9298 8.53551 35.6667 7.31279 34.0544 6.77689C32.4418 6.24099 30.6979 6.46454 29.1435 7.4058C27.6586 8.30494 26.5209 9.76384 25.9397 11.5133C24.7131 15.204 26.3566 19.0848 29.6033 20.1643Z" fill="#E9473C"/>
<path id="Vector_5" d="M43.8324 19.2659L43.8313 19.2648C41.262 17.3669 37.4194 18.1895 35.2649 21.0996C33.1126 24.0111 33.4491 27.9253 36.0146 29.8246C36.9502 30.5178 38.0557 30.8491 39.1872 30.8491C41.1592 30.8491 43.2108 29.8425 44.5824 27.9916C46.7344 25.0801 46.3982 21.1659 43.8324 19.2659Z" fill="#E9473C"/>
</g>
<defs>
<clipPath id="clip0_15_134">
<rect width="46" height="46" fill="white"/>
</clipPath>
</defs>
</svg>
